<svg width="83" height="97" viewBox="0 0 83 97" fill="none" xmlns="http://www.w3.org/2000/svg">
<g clip-path="url(#clip0_9021_2242)">
<path d="M53.6059 22.4983C54.8349 13.5498 58.0508 6.7292 64.7422 2.05699C66.4116 0.889781 68.7468 0.663106 70.7781 0.00337982C71.3892 1.87768 72.5021 3.74521 72.5294 5.62966C72.6967 16.9566 72.7513 28.2904 72.5294 39.6174C72.4611 43.1089 73.3863 45.7647 75.841 48.1972C77.722 50.0614 79.5519 52.1116 80.8697 54.3817C86.2433 63.6686 80.9653 75.432 70.4742 77.868C69.1155 78.1826 67.7396 78.4127 66.3945 78.6765C65.1826 82.4387 64.0014 86.1128 62.6631 90.2742C65.0802 90.2742 67.2549 89.8986 69.194 90.4061C70.5084 90.7478 71.495 92.3312 72.625 93.363C71.4813 94.5438 70.4162 96.6278 69.1769 96.7395C64.6978 97.1353 60.1504 97.0304 55.6474 96.7868C52.7251 96.6278 51.4756 94.1209 53.2133 91.6647C56.9447 86.3835 59.3038 80.7301 59.7851 74.2479C59.9729 71.7038 61.8472 70.7869 64.3871 71.3282C68.9209 72.2924 72.4714 70.7429 74.8475 66.8827C77.1587 63.1307 76.4862 59.2332 73.1576 55.3358C72.5192 54.5881 71.7271 53.9419 71.2151 53.1232C68.1152 48.1938 63.8989 46.668 57.887 46.58C37.6832 46.2823 23.7918 25.4586 30.6778 6.61755C32.3165 2.13142 35.1466 1.61379 38.4411 5.2981C43.2923 10.7214 48.065 16.2123 53.6025 22.5051L53.6059 22.4983ZM59.6588 39.8813C51.6804 30.7635 44.2073 22.2209 36.4371 13.34C33.4158 25.0222 44.2448 40.2737 59.6588 39.8813ZM65.7357 10.7146C61.6321 14.8895 60.4338 19.4399 60.5635 24.2136C60.6796 28.3513 60.9732 32.7799 65.7357 35.4933V10.7146Z" fill="white"/>
<path d="M35.2764 90.2234C38.366 90.2234 40.9367 89.8344 43.2992 90.3621C44.8389 90.7072 46.9896 92.1958 47.2593 93.4984C47.8124 96.1677 45.5421 96.8917 43.1592 96.8884C35.5461 96.8748 27.9261 97.0372 20.3267 96.7429C18.8689 96.6854 16.5713 95.0783 16.2538 93.7961C15.5949 91.1606 17.9028 90.4941 20.214 90.1625C28.2232 89.0089 33.088 83.9577 33.2144 76.7041C33.3099 71.1624 30.7222 67.0552 25.9358 64.3588C23.7918 63.151 21.7981 61.7876 23.2354 59.1893C24.7887 56.3846 27.2843 57.4063 29.5 58.5735C39.5131 63.8378 42.9851 76.6297 37.195 86.8673C36.6727 87.7909 36.1435 88.7078 35.2764 90.2234Z" fill="white"/>
<path d="M0.126309 73.436C0.20483 56.2053 14.004 41.8672 31.2957 41.0113C33.7401 40.8895 36.0616 41.3022 36.2425 44.2287C36.4132 46.9454 34.3921 47.4326 32.0194 47.7134C16.1787 49.5776 6.36019 60.3903 6.90983 75.3711C7.00201 77.9052 6.72548 80.3411 3.79631 80.0163C2.43414 79.864 1.21536 77.4586 0.184346 75.9091C-0.204844 75.3272 0.122895 74.275 0.122895 73.4393L0.126309 73.436Z" fill="white"/>
<path d="M6.81425 95.7482C3.37981 95.7381 0.720345 93.0958 0.658894 89.6314C0.590615 85.832 3.15449 83.2337 6.91667 83.2878C10.3921 83.3386 13.2666 86.0485 13.3008 89.3032C13.3349 92.7304 10.2862 95.755 6.81425 95.7482Z" fill="white"/>
<path d="M63.2776 54.8283C66.4492 55.0922 68.1732 56.8751 68.3166 59.9166C68.4531 62.8025 65.7391 65.235 62.8406 64.9339C59.7339 64.6125 57.9279 62.8059 58.0781 59.6731C58.2249 56.5571 60.1504 54.967 63.2776 54.8283Z" fill="white"/>
</g>
<defs>
<clipPath id="clip0_9021_2242">
<rect width="83" height="97" fill="white"/>
</clipPath>
</defs>
</svg>
